<!-- Generated by IcoMoon.io -->
<svg version="1.1" xmlns="http://www.w3.org/2000/svg" width="14" height="20" viewBox="0 0 14 20">
<title>child</title>
<path d="M13.259 6.116l-3.259 3.259v9.196c0 0.692-0.558 1.25-1.25 1.25s-1.25-0.558-1.25-1.25v-4.286h-0.714v4.286c0 0.692-0.558 1.25-1.25 1.25s-1.25-0.558-1.25-1.25v-9.196l-3.259-3.259c-0.413-0.424-0.413-1.094 0-1.518 0.424-0.413 1.094-0.413 1.518 0l2.545 2.545h4.107l2.545-2.545c0.424-0.413 1.094-0.413 1.518 0 0.413 0.424 0.413 1.094 0 1.518zM9.643 4.286c0 1.384-1.116 2.5-2.5 2.5s-2.5-1.116-2.5-2.5 1.116-2.5 2.5-2.5 2.5 1.116 2.5 2.5z"></path>
</svg>
