<!-- Generated by IcoMoon.io -->
<svg version="1.1" xmlns="http://www.w3.org/2000/svg" width="20" height="20" viewBox="0 0 20 20">
<title>gps_fixed</title>
<path d="M10 15.82q2.422 0 4.121-1.699t1.699-4.121-1.699-4.121-4.121-1.699-4.121 1.699-1.699 4.121 1.699 4.121 4.121 1.699zM17.461 9.18h1.719v1.641h-1.719q-0.273 2.461-2.227 4.414t-4.414 2.227v1.719h-1.641v-1.719q-2.461-0.273-4.414-2.227t-2.227-4.414h-1.719v-1.641h1.719q0.273-2.461 2.227-4.414t4.414-2.227v-1.719h1.641v1.719q2.461 0.273 4.414 2.227t2.227 4.414zM10 6.68q1.367 0 2.344 0.977t0.977 2.344-0.977 2.344-2.344 0.977-2.344-0.977-0.977-2.344 0.977-2.344 2.344-0.977z"></path>
</svg>
