<!-- Generated by IcoMoon.io -->
<svg version="1.1" xmlns="http://www.w3.org/2000/svg" width="20" height="20" viewBox="0 0 20 20">
<title>stroller</title>
<path d="M11.68 16.68q0-0.703 0.488-1.191t1.152-0.488q0.703 0 1.191 0.488t0.488 1.191q0 0.664-0.488 1.152t-1.191 0.488q-0.664 0-1.152-0.488t-0.488-1.152zM3.32 16.68q0-0.703 0.488-1.191t1.191-0.488 1.191 0.488 0.488 1.191q0 0.664-0.488 1.152t-1.191 0.488-1.191-0.488-0.488-1.152zM18.32 5.82v-0.43q0-0.781-0.371-1.445t-0.996-1.055-1.406-0.391q-0.703 0-1.191 0.293t-0.84 0.684-0.625 0.703l-7.344 8.594q-0.234 0.273-0.195 0.605t0.254 0.566 0.605 0.234h6.289q0.703 0 1.191-0.488t0.488-1.191v-7.266q0.352-0.43 0.645-0.742t0.723-0.313q0.469 0 0.801 0.352t0.332 0.859v0.43h1.641zM11.914 3.398q-0.781-0.43-1.699-0.664t-1.895-0.234q-1.211 0-2.324 0.371t-2.051 1.074l4.063 4.063z"></path>
</svg>
