<svg aria-hidden="true" style="position: absolute; width: 0; height: 0; overflow: hidden;" version="1.1" xmlns="http://www.w3.org/2000/svg" xmlns:xlink="http://www.w3.org/1999/xlink">
<defs>
<symbol id="icon-stroller" viewBox="0 0 20 20">
<path d="M11.68 16.68q0-0.703 0.488-1.191t1.152-0.488q0.703 0 1.191 0.488t0.488 1.191q0 0.664-0.488 1.152t-1.191 0.488q-0.664 0-1.152-0.488t-0.488-1.152zM3.32 16.68q0-0.703 0.488-1.191t1.191-0.488 1.191 0.488 0.488 1.191q0 0.664-0.488 1.152t-1.191 0.488-1.191-0.488-0.488-1.152zM18.32 5.82v-0.43q0-0.781-0.371-1.445t-0.996-1.055-1.406-0.391q-0.703 0-1.191 0.293t-0.84 0.684-0.625 0.703l-7.344 8.594q-0.234 0.273-0.195 0.605t0.254 0.566 0.605 0.234h6.289q0.703 0 1.191-0.488t0.488-1.191v-7.266q0.352-0.43 0.645-0.742t0.723-0.313q0.469 0 0.801 0.352t0.332 0.859v0.43h1.641zM11.914 3.398q-0.781-0.43-1.699-0.664t-1.895-0.234q-1.211 0-2.324 0.371t-2.051 1.074l4.063 4.063z"></path>
</symbol>
<symbol id="icon-gps_fixed" viewBox="0 0 20 20">
<path d="M10 15.82q2.422 0 4.121-1.699t1.699-4.121-1.699-4.121-4.121-1.699-4.121 1.699-1.699 4.121 1.699 4.121 4.121 1.699zM17.461 9.18h1.719v1.641h-1.719q-0.273 2.461-2.227 4.414t-4.414 2.227v1.719h-1.641v-1.719q-2.461-0.273-4.414-2.227t-2.227-4.414h-1.719v-1.641h1.719q0.273-2.461 2.227-4.414t4.414-2.227v-1.719h1.641v1.719q2.461 0.273 4.414 2.227t2.227 4.414zM10 6.68q1.367 0 2.344 0.977t0.977 2.344-0.977 2.344-2.344 0.977-2.344-0.977-0.977-2.344 0.977-2.344 2.344-0.977z"></path>
</symbol>
<symbol id="icon-sensor_door" viewBox="0 0 20 20">
<path d="M15 1.68h-10q-0.703 0-1.191 0.488t-0.488 1.152v15h13.359v-15q0-0.664-0.488-1.152t-1.191-0.488zM12.93 11.25q-0.547 0-0.898-0.371t-0.352-0.879 0.352-0.879 0.898-0.371q0.508 0 0.879 0.371t0.371 0.879-0.371 0.879-0.879 0.371z"></path>
</symbol>
<symbol id="icon-snowflake-o" viewBox="0 0 19 20">
<path d="M17.478 12.467l-1.864 0.368 2.076 1.194c0.335 0.19 0.458 0.636 0.257 0.971s-0.636 0.458-0.971 0.257l-2.076-1.183 0.614 1.786c0.313 0.893-1.049 1.35-1.35 0.469l-1.138-3.348-3.025-1.741v3.493l2.321 2.656c0.625 0.703-0.458 1.652-1.071 0.938l-1.25-1.429v2.388c0 0.391-0.324 0.714-0.714 0.714s-0.714-0.324-0.714-0.714v-2.388l-1.25 1.429c-0.614 0.714-1.696-0.234-1.071-0.938l2.321-2.656v-3.493l-3.025 1.741-1.138 3.348c-0.301 0.882-1.663 0.424-1.35-0.469l0.614-1.786-2.076 1.183c-0.335 0.201-0.77 0.078-0.971-0.257s-0.078-0.781 0.257-0.971l2.076-1.194-1.864-0.368c-0.926-0.19-0.647-1.585 0.279-1.406l3.46 0.692 3.025-1.752-3.025-1.752-3.46 0.692c-0.045 0.011-0.1 0.011-0.145 0.011-0.848 0-0.971-1.25-0.134-1.417l1.864-0.368-2.076-1.194c-0.335-0.19-0.458-0.636-0.257-0.971 0.201-0.346 0.636-0.458 0.971-0.257l2.076 1.183-0.614-1.786c-0.313-0.893 1.049-1.35 1.35-0.469l1.138 3.348 3.025 1.741v-3.493l-2.321-2.656c-0.625-0.703 0.458-1.652 1.071-0.938l1.25 1.429v-2.388c0-0.391 0.324-0.714 0.714-0.714s0.714 0.324 0.714 0.714v2.388l1.25-1.429c0.614-0.714 1.696 0.234 1.071 0.938l-2.321 2.656v3.493l3.025-1.741 1.138-3.348c0.301-0.882 1.663-0.424 1.35 0.469l-0.614 1.786 2.076-1.183c0.335-0.201 0.77-0.078 0.971 0.257s0.078 0.781-0.257 0.971l-2.076 1.194 1.864 0.368c0.837 0.167 0.714 1.417-0.134 1.417-0.045 0-0.1 0-0.145-0.011l-3.46-0.692-3.025 1.752 3.025 1.752 3.46-0.692c0.926-0.179 1.205 1.217 0.279 1.406z"></path>
</symbol>
<symbol id="icon-child" viewBox="0 0 14 20">
<path d="M13.259 6.116l-3.259 3.259v9.196c0 0.692-0.558 1.25-1.25 1.25s-1.25-0.558-1.25-1.25v-4.286h-0.714v4.286c0 0.692-0.558 1.25-1.25 1.25s-1.25-0.558-1.25-1.25v-9.196l-3.259-3.259c-0.413-0.424-0.413-1.094 0-1.518 0.424-0.413 1.094-0.413 1.518 0l2.545 2.545h4.107l2.545-2.545c0.424-0.413 1.094-0.413 1.518 0 0.413 0.424 0.413 1.094 0 1.518zM9.643 4.286c0 1.384-1.116 2.5-2.5 2.5s-2.5-1.116-2.5-2.5 1.116-2.5 2.5-2.5 2.5 1.116 2.5 2.5z"></path>
</symbol>
<symbol id="icon-bookmark" viewBox="0 0 20 20">
<path d="M14 2v17l-4-4-4 4v-17c0-0.553 0.585-1.020 1-1h6c0.689-0.020 1 0.447 1 1z"></path>
</symbol>
<symbol id="icon-chevron-thin-left" viewBox="0 0 20 20">
<path d="M13.891 17.418c0.268 0.272 0.268 0.709 0 0.979s-0.701 0.271-0.969 0l-7.83-7.908c-0.268-0.27-0.268-0.707 0-0.979l7.83-7.908c0.268-0.27 0.701-0.27 0.969 0s0.268 0.709 0 0.979l-7.141 7.419 7.141 7.418z"></path>
</symbol>
<symbol id="icon-chevron-thin-right" viewBox="0 0 20 20">
<path d="M13.25 10l-7.141-7.42c-0.268-0.27-0.268-0.707 0-0.979 0.268-0.27 0.701-0.27 0.969 0l7.83 7.908c0.268 0.271 0.268 0.709 0 0.979l-7.83 7.908c-0.268 0.271-0.701 0.27-0.969 0s-0.268-0.707 0-0.979l7.141-7.417z"></path>
</symbol>
<symbol id="icon-aircraft-landing" viewBox="0 0 20 20">
<path d="M18.752 16.038c-0.097 0.266-0.822 1.002-6.029-0.878l-5.105-1.843c-1.777-0.641-4.278-1.649-5.258-2.217-0.686-0.397-0.836-1.282-0.836-1.282s-0.163-2.956-0.263-3.684c-0.1-0.728 0.095-0.853 0.796-0.492 0.436 0.225 1.865 2.562 2.464 3.567 1.512 0.381 2.862 0.761 3.493 0.949-0.257-1.717-0.74-4.928-0.913-5.933-0.166-0.963 0.55-0.535 0.55-0.535 0.331 0.19 0.983 0.661 1.206 1.002 1.522 2.326 3.672 6.6 3.836 6.928 0.896 0.28 2.277 0.733 3.102 1.030 2.156 0.779 3.087 3.034 2.957 3.388z"></path>
</symbol>
<symbol id="icon-aircraft-take-off" viewBox="0 0 20 20">
<path d="M19.87 6.453c0.119 0.257 0.127 1.29-4.884 3.642l-4.913 2.306c-1.71 0.803-4.191 1.859-5.285 2.151-0.766 0.204-1.497-0.316-1.497-0.316s-2.206-1.975-2.792-2.419c-0.585-0.444-0.535-0.67 0.215-0.91 0.467-0.149 3.13 0.493 4.265 0.78 1.339-0.8 2.562-1.486 3.141-1.798-1.396-1.033-4.008-2.962-4.841-3.55-0.799-0.565 0.010-0.768 0.010-0.768 0.368-0.099 1.162-0.228 1.562-0.144 2.721 0.569 7.263 2.071 7.611 2.186 0.832-0.436 2.128-1.092 2.922-1.465 2.075-0.974 4.327-0.037 4.486 0.305z"></path>
</symbol>
<symbol id="icon-aircraft" viewBox="0 0 20 20">
<path d="M12.496 17.414c-0.394-1.096-1.805-4.775-2.39-6.297-1.103 0.737-2.334 1.435-3.512 1.928-0.366 1.28-1.094 3.709-1.446 4.033-0.604 0.557-0.832 0.485-0.925-0.279s-0.485-3.236-0.485-3.236-2.162-1.219-2.84-1.568-0.667-0.591 0.057-0.974c0.422-0.223 2.927-0.085 4.242 0.005 0.861-0.951 1.931-1.882 2.993-2.679-1.215-1.076-4.15-3.675-5.034-4.424-0.776-0.658 0.079-0.797 0.079-0.797 0.39-0.070 1.222-0.132 1.628-0.009 2.524 0.763 6.442 2.068 7.363 2.376 0.353-0.249 0.737-0.52 1.162-0.821 4.702-3.33 5.887-2.593 6.111-2.27s0.503 1.701-4.199 5.032c-0.425 0.301-0.808 0.573-1.16 0.823-0.029 0.98-0.157 5.151-0.311 7.811-0.025 0.428-0.367 1.198-0.565 1.544-0.001 0-0.423 0.765-0.768-0.198z"></path>
</symbol>
<symbol id="icon-ccw" viewBox="0 0 20 20">
<path d="M0.685 10h2.372v-0.205c0.108-4.434 3.724-7.996 8.169-7.996 4.515 0 8.174 3.672 8.174 8.201s-3.659 8.199-8.174 8.199c-1.898 0-3.645-0.65-5.033-1.738l1.406-1.504c1.016 0.748 2.27 1.193 3.627 1.193 3.386 0 6.131-2.754 6.131-6.15s-2.745-6.15-6.131-6.15c-3.317 0-6.018 2.643-6.125 5.945v0.205h2.672l-3.494 3.894-3.594-3.894z"></path>
</symbol>
<symbol id="icon-chat" viewBox="0 0 20 20">
<path d="M5.8 12.2v-6.2h-3.8c-1.1 0-2 0.9-2 2v6c0 1.1 0.9 2 2 2h1v3l3-3h5c1.1 0 2-0.9 2-2v-1.82c-0.064 0.014-0.132 0.021-0.2 0.021l-7-0.001zM18 1h-9c-1.1 0-2 0.9-2 2v8h7l3 3v-3h1c1.1 0 2-0.899 2-2v-6c0-1.1-0.9-2-2-2z"></path>
</symbol>
<symbol id="icon-cog" viewBox="0 0 20 20">
<path d="M16.783 10c0-1.049 0.646-1.875 1.617-2.443-0.176-0.584-0.407-1.145-0.692-1.672-1.089 0.285-1.97-0.141-2.711-0.883-0.741-0.74-0.968-1.621-0.683-2.711-0.527-0.285-1.088-0.518-1.672-0.691-0.568 0.97-1.595 1.615-2.642 1.615-1.048 0-2.074-0.645-2.643-1.615-0.585 0.173-1.144 0.406-1.671 0.691 0.285 1.090 0.059 1.971-0.684 2.711-0.74 0.742-1.621 1.168-2.711 0.883-0.285 0.527-0.517 1.088-0.691 1.672 0.97 0.568 1.615 1.394 1.615 2.443 0 1.047-0.645 2.074-1.615 2.643 0.175 0.584 0.406 1.144 0.691 1.672 1.090-0.285 1.971-0.059 2.711 0.682s0.969 1.623 0.684 2.711c0.527 0.285 1.087 0.518 1.672 0.693 0.568-0.973 1.595-1.617 2.643-1.617 1.047 0 2.074 0.645 2.643 1.617 0.584-0.176 1.144-0.408 1.672-0.693-0.285-1.088-0.059-1.969 0.683-2.711 0.741-0.74 1.622-1.166 2.711-0.883 0.285-0.527 0.517-1.086 0.692-1.672-0.973-0.569-1.619-1.395-1.619-2.442zM10 13.652c-2.018 0-3.653-1.635-3.653-3.652 0-2.018 1.636-3.654 3.653-3.654s3.652 1.637 3.652 3.654c0 2.018-1.634 3.652-3.652 3.652z"></path>
</symbol>
<symbol id="icon-gauge" viewBox="0 0 20 20">
<path d="M8.127 13.6c-0.689 1.197-0.225 2.18 0.732 2.732 0.956 0.553 2.041 0.465 2.732-0.732 0.689-1.195 5.047-11.865 4.668-12.084s-7.442 8.888-8.132 10.084zM10 6c0.438 0 0.864 0.037 1.281 0.109 0.438-0.549 0.928-1.154 1.405-1.728-0.852-0.246-1.752-0.381-2.686-0.381-5.607 0-10 4.729-10 10.766 0 0.371 0.016 0.742 0.049 1.103 0.049 0.551 0.54 0.955 1.084 0.908 0.551-0.051 0.957-0.535 0.908-1.086-0.027-0.302-0.041-0.615-0.041-0.925 0-4.916 3.514-8.766 8-8.766zM17.219 7.25c-0.279 0.75-0.574 1.514-0.834 2.174 1.015 1.47 1.615 3.314 1.615 5.342 0 0.316-0.015 0.635-0.043 0.943-0.050 0.551 0.355 1.037 0.905 1.088 0.030 0.002 0.061 0.004 0.092 0.004 0.511 0 0.948-0.391 0.995-0.91 0.033-0.37 0.051-0.748 0.051-1.125 0-2.954-1.053-5.59-2.781-7.516z"></path>
</symbol>
<symbol id="icon-home" viewBox="0 0 20 20">
<path d="M18.672 11h-1.672v6c0 0.445-0.194 1-1 1h-4v-6h-4v6h-4c-0.806 0-1-0.555-1-1v-6h-1.672c-0.598 0-0.47-0.324-0.060-0.748l8.024-8.032c0.195-0.202 0.451-0.302 0.708-0.312 0.257 0.010 0.513 0.109 0.708 0.312l8.023 8.031c0.411 0.425 0.539 0.749-0.059 0.749z"></path>
</symbol>
<symbol id="icon-key" viewBox="0 0 20 20">
<path d="M17.691 4.725c-0.503-2.977-3.22-4.967-6.069-4.441s-5.256 2.816-4.753 5.795c0.107 0.641 0.408 1.644 0.763 2.365l-5.175 7.723c-0.191 0.285-0.299 0.799-0.242 1.141l0.333 1.971c0.058 0.342 0.372 0.572 0.7 0.514l1.516-0.281c0.328-0.059 0.744-0.348 0.924-0.639l2.047-3.311 0.018-0.022 1.386-0.256 2.39-3.879c0.785 0.139 1.912 0.092 2.578-0.031 2.848-0.526 4.087-3.67 3.584-6.649zM15.166 6.252c-0.784 1.17-1.584 0.346-2.703-0.475-1.119-0.818-2.135-1.322-1.352-2.492s2.326-1.455 3.447-0.635c1.12 0.819 1.391 2.432 0.608 3.602z"></path>
</symbol>
<symbol id="icon-location-pin" viewBox="0 0 20 20">
<path d="M10 2.009c-2.762 0-5 2.229-5 4.99 0 4.774 5 11 5 11s5-6.227 5-11c0-2.76-2.238-4.99-5-4.99zM10 9.76c-1.492 0-2.7-1.209-2.7-2.7s1.208-2.7 2.7-2.7c1.49 0 2.699 1.209 2.699 2.7s-1.209 2.7-2.699 2.7z"></path>
</symbol>
<symbol id="icon-magnifying-glass" viewBox="0 0 20 20">
<path d="M17.545 15.467l-3.779-3.779c0.57-0.935 0.898-2.035 0.898-3.21 0-3.417-2.961-6.377-6.378-6.377s-6.186 2.769-6.186 6.186c0 3.416 2.961 6.377 6.377 6.377 1.137 0 2.2-0.309 3.115-0.844l3.799 3.801c0.372 0.371 0.975 0.371 1.346 0l0.943-0.943c0.371-0.371 0.236-0.84-0.135-1.211zM4.004 8.287c0-2.366 1.917-4.283 4.282-4.283s4.474 2.107 4.474 4.474c0 2.365-1.918 4.283-4.283 4.283s-4.473-2.109-4.473-4.474z"></path>
</symbol>
<symbol id="icon-man" viewBox="0 0 20 20">
<path d="M10 4c1.104 0 2-0.896 2-2s-0.896-2-2-2-2 0.895-2 2c0 1.104 0.896 2 2 2zM15.978 11.583c-0.385-1.775-1.058-4.688-2.042-5.894-0.957-1.173-2.885-1.222-3.936-1.222v0c-1.051 0-2.979 0.049-3.936 1.222-0.984 1.206-1.657 4.119-2.042 5.894-0.213 0.983 1.154 1.344 1.511 0.355 0.531-1.473 0.941-2.71 1.839-3.736 0.472 2.907-1.27 7.966-1.372 10.798 0 0.552 0.448 1 1 1 0.426 0 0.79-0.266 0.934-0.642 0.457-1.587 2.066-6.003 2.066-6.003v0 0c0 0 1.609 4.416 2.066 6.003 0.144 0.376 0.508 0.642 0.934 0.642 0.552 0 1-0.448 1-1-0.102-2.832-1.844-7.891-1.372-10.797 0.898 1.026 1.308 2.263 1.839 3.736 0.356 0.988 1.724 0.627 1.511-0.356z"></path>
</symbol>
<symbol id="icon-map" viewBox="0 0 20 20">
<path d="M19.447 3.718l-6-3c-0.281-0.141-0.613-0.141-0.895 0l-5.63 2.815-5.606-1.869c-0.306-0.102-0.64-0.051-0.901 0.138s-0.415 0.49-0.415 0.811v13.001c0 0.379 0.214 0.725 0.553 0.894l6 3c0.141 0.070 0.294 0.106 0.447 0.106s0.307-0.035 0.447-0.106l5.63-2.814 5.606 1.869c0.305 0.1 0.64 0.049 0.901-0.139s0.415-0.49 0.415-0.81v-13.002c0.001-0.379-0.213-0.725-0.552-0.894zM8 5.231l4-2v11.763l-4 2v-11.763zM2 4l4 1.333v11.661l-4-2v-10.994zM18 16.227l-4-1.334v-11.662l4 2v10.996z"></path>
</symbol>
<symbol id="icon-phone" viewBox="0 0 20 20">
<path d="M11.229 11.229c-1.583 1.582-3.417 3.096-4.142 2.371-1.037-1.037-1.677-1.941-3.965-0.102-2.287 1.838-0.53 3.064 0.475 4.068 1.16 1.16 5.484 0.062 9.758-4.211 4.273-4.274 5.368-8.598 4.207-9.758-1.005-1.006-2.225-2.762-4.063-0.475s-0.936 2.927 0.103 3.965c0.722 0.725-0.791 2.559-2.373 4.142z"></path>
</symbol>
<symbol id="icon-star-outlined" viewBox="0 0 20 20">
<path d="M18.8 8.022h-6.413l-2.387-6.722-2.389 6.722h-6.412l5.232 3.947-1.871 6.929 5.44-4.154 5.438 4.154-1.869-6.929 5.231-3.947zM10 12.783l-3.014 2.5 1.243-3.562-2.851-2.3 3.522 0.101 1.1-4.040 1.099 4.040 3.521-0.101-2.851 2.3 1.243 3.562-3.012-2.5z"></path>
</symbol>
<symbol id="icon-star" viewBox="0 0 20 20">
<path d="M10 1.3l2.388 6.722h6.412l-5.232 3.948 1.871 6.928-5.439-4.154-5.438 4.154 1.87-6.928-5.233-3.948h6.412l2.389-6.722z"></path>
</symbol>
<symbol id="icon-thumbs-up" viewBox="0 0 20 20">
<path d="M13.648 7.362c-0.133-0.355 3.539-3.634 1.398-6.291-0.501-0.621-2.201 2.975-4.615 4.603-1.332 0.898-4.431 2.81-4.431 3.867v6.842c0 1.271 4.914 2.617 8.648 2.617 1.369 0 3.352-8.576 3.352-9.938 0-1.368-4.221-1.344-4.352-1.7zM5 7.457c-0.658 0-3 0.4-3 3.123v4.848c0 2.721 2.342 3.021 3 3.021 0.657 0-1-0.572-1-2.26v-6.373c0-1.768 1.657-2.359 1-2.359z"></path>
</symbol>
<symbol id="icon-trophy" viewBox="0 0 20 20">
<path d="M11.18 14.356c0-1.451 1.1-2.254 2.894-3.442 2.194-1.456 4.926-3.265 4.926-7.56 0-0.387-0.317-0.699-0.709-0.699h-3.43c-0.484-0.896-1.929-1.855-4.861-1.855-2.934 0-4.377 0.959-4.862 1.855h-3.431c-0.391 0-0.707 0.313-0.707 0.699 0 4.295 2.73 6.104 4.926 7.559 1.794 1.188 2.894 1.991 2.894 3.442v1.311c-1.884 0.209-3.269 0.906-3.269 1.736 0 0.994 1.992 1.799 4.449 1.799s4.449-0.805 4.449-1.799c0-0.83-1.385-1.527-3.269-1.736v-1.31zM13.957 9.3c0.566-1.199 1.016-2.826 1.088-5.246h2.51c-0.24 2.701-1.862 4.064-3.598 5.246zM10 2.026c2.732-0.002 3.799 1.115 3.798 1.529 0 0.418-1.066 1.533-3.798 1.535-2.732-0.001-3.799-1.116-3.799-1.534-0.001-0.414 1.067-1.532 3.799-1.53zM2.445 4.054h2.509c0.073 2.42 0.521 4.047 1.089 5.246-1.736-1.182-3.359-2.545-3.598-5.246z"></path>
</symbol>
<symbol id="icon-user" viewBox="0 0 20 20">
<path d="M7.725 2.146c-1.016 0.756-1.289 1.953-1.239 2.59 0.064 0.779 0.222 1.793 0.222 1.793s-0.313 0.17-0.313 0.854c0.109 1.717 0.683 0.976 0.801 1.729 0.284 1.814 0.933 1.491 0.933 2.481 0 1.649-0.68 2.42-2.803 3.334-2.13 0.918-4.326 2.073-4.326 4.073v1h18v-1c0-2-2.197-3.155-4.328-4.072-2.123-0.914-2.801-1.684-2.801-3.334 0-0.99 0.647-0.667 0.932-2.481 0.119-0.753 0.692-0.012 0.803-1.729 0-0.684-0.314-0.854-0.314-0.854s0.158-1.014 0.221-1.793c0.065-0.817-0.398-2.561-2.3-3.096-0.333-0.34-0.558-0.881 0.466-1.424-2.24-0.105-2.761 1.067-3.954 1.929z"></path>
</symbol>
<symbol id="icon-users" viewBox="0 0 20 20">
<path d="M15.989 19.129c0-2.246-2.187-3.389-4.317-4.307-2.123-0.914-2.801-1.684-2.801-3.334 0-0.989 0.648-0.667 0.932-2.481 0.12-0.752 0.692-0.012 0.802-1.729 0-0.684-0.313-0.854-0.313-0.854s0.159-1.013 0.221-1.793c0.064-0.817-0.398-2.56-2.301-3.095-0.332-0.341-0.557-0.882 0.467-1.424-2.24-0.104-2.761 1.068-3.954 1.93-1.015 0.756-1.289 1.953-1.24 2.59 0.065 0.78 0.223 1.793 0.223 1.793s-0.314 0.17-0.314 0.854c0.11 1.718 0.684 0.977 0.803 1.729 0.284 1.814 0.933 1.492 0.933 2.481 0 1.65-0.212 2.21-2.336 3.124-2.131 0.917-2.794 2.387-2.783 4.516 0.003 0.637-0.011 0.871-0.011 0.871h16c0 0-0.011-0.234-0.011-0.871zM18.528 13.365c-1.135-0.457-1.605-1.002-1.605-2.066 0-0.641 0.418-0.432 0.602-1.603 0.077-0.484 0.447-0.008 0.518-1.115 0-0.441-0.202-0.551-0.202-0.551s0.103-0.656 0.143-1.159c0.050-0.627-0.364-2.247-2.268-2.247s-2.318 1.62-2.269 2.247c0.042 0.502 0.144 1.159 0.144 1.159s-0.202 0.109-0.202 0.551c0.071 1.107 0.441 0.631 0.518 1.115 0.184 1.172 0.602 0.963 0.602 1.603 0 1.064-0.438 1.562-1.809 2.152-0.069 0.029-0.12 0.068-0.183 0.102 1.64 0.712 4.226 1.941 4.838 4.447h2.645c0 0 0-1.906 0-2.318 0-1-0.273-1.834-1.472-2.317z"></path>
</symbol>
<symbol id="icon-cog1" viewBox="0 0 20 20">
<path d="M18.238 11.919c-1.049-1.817-0.418-4.147 1.409-5.205l-1.965-3.404c-0.562 0.329-1.214 0.518-1.911 0.518-2.1 0-3.803-1.714-3.803-3.828h-3.931c0.005 0.653-0.158 1.314-0.507 1.919-1.049 1.818-3.382 2.436-5.212 1.382l-1.965 3.404c0.566 0.322 1.056 0.793 1.404 1.396 1.048 1.815 0.42 4.139-1.401 5.2l1.965 3.404c0.56-0.326 1.209-0.513 1.902-0.513 2.094 0 3.792 1.703 3.803 3.808h3.931c-0.002-0.646 0.162-1.3 0.507-1.899 1.048-1.815 3.375-2.433 5.203-1.387l1.965-3.404c-0.562-0.322-1.049-0.791-1.395-1.391zM10 14.049c-2.236 0-4.050-1.813-4.050-4.049s1.813-4.049 4.050-4.049c2.236 0 4.049 1.813 4.049 4.049s-1.813 4.049-4.049 4.049z"></path>
</symbol>
<symbol id="icon-briefcase" viewBox="0 0 20 20">
<path d="M18.75 5h-5v-1.25c0-0.688-0.563-1.25-1.25-1.25h-5c-0.688 0-1.25 0.563-1.25 1.25v1.25h-5c-0.688 0-1.25 0.563-1.25 1.25v11.25c0 0.688 0.562 1.25 1.25 1.25h17.5c0.688 0 1.25-0.562 1.25-1.25v-11.25c0-0.688-0.563-1.25-1.25-1.25zM7.5 3.752c0.001-0.001 0.001-0.002 0.002-0.002h4.996c0.001 0.001 0.002 0.001 0.002 0.002v1.248h-5v-1.248zM18.75 10h-2.5v1.875c0 0.344-0.281 0.625-0.625 0.625h-1.25c-0.344 0-0.625-0.281-0.625-0.625v-1.875h-7.5v1.875c0 0.344-0.281 0.625-0.625 0.625h-1.25c-0.344 0-0.625-0.281-0.625-0.625v-1.875h-2.5v-1.25h17.5v1.25z"></path>
</symbol>
</defs>
</svg>
